# xmcd
#
# Track frame offsets: 
#        150
#        17710
#        28187
#        46852
#        64873
#        81222
#        93465
#        105529
#        122277
#        138722
#        157245
#        171462
#        183766
#        203156
#        216813
#        227556
#        247177
#        262013
#        277470
#
# Disc length: 3919 seconds
#
# Revision: 0
# Processed by: cddbd v1.4PL0 Copyright (c) Steve Scherf et al.
# Submitted via: ExactAudioCopy v0.90b4
#
DISCID=1c0f4d13
DTITLE=Various Artist - Crossroads Airplay Sampler March 2003
DYEAR=2003
DGENRE=Gospel
TTITLE0=Talley Trio - I Love The Lord
TTITLE1=Mark Bishop - Cloud Nine Headed For Ten
TTITLE2=The Trio - It's Alright to Have a Good Time
TTITLE3=Lauren Talley - Count On Me
TTITLE4=The Inspirations - We Need To Thank God
TTITLE5=Carolina Boys - God Sits On High
TTITLE6=McKameys - Surely Goodness and the Mercies of the Lord
TTITLE7=Ivan Parker - It's True
TTITLE8=Amy Lambert - Has Anybody Talked To Jesus Lately
TTITLE9=Kirk Talley - I Know Him
TTITLE10=Kingdom Heirs - The Depths of the Father's Love
TTITLE11=Palmetto State - There's Something Going On
TTITLE12=The Isaacs - It Is Well (Elisha's Song)
TTITLE13=Three Bridges - Come Out of the Wilderness
TTITLE14=Jody Brown Indian Family - Jesus Is All That I Need
TTITLE15=Newfound Road - God Is Still In Control
TTITLE16=Jake Hess - No Fishin
TTITLE17=Perry Sisters - We Need A Helping Hand
TTITLE18=The Rochesters - In God's Hands
EXTD=
EXTT0=
EXTT1=
EXTT2=
EXTT3=
EXTT4=
EXTT5=
EXTT6=
EXTT7=
EXTT8=
EXTT9=
EXTT10=
EXTT11=
EXTT12=
EXTT13=
EXTT14=
EXTT15=
EXTT16=
EXTT17=
EXTT18=
PLAYORDER=
